<svg width="auto" height="auto" viewBox="0 0 549 549" fill="none" xmlns="http://www.w3.org/2000/svg">
<path d="M379.335 19.3382L374.941 17.5679L365.276 13.9812C311.738 -3.13423 230.314 -0.568537 187.856 12.5661C182.513 14.4399 175.416 17.021 170.143 19.0844C182.086 14.1946 198.671 10.087 219.201 7.3262C276.416 -0.367773 344.498 5.05808 379.335 19.3382Z" fill="url(#paint0_linear_1831_13335)"/>
<path d="M463.858 74.0923L461.367 71.7648L454.427 65.5732C451.704 63.2583 448.371 60.9673 444.408 58.7155C398.474 32.6186 285.297 21.6749 191.62 34.2722C143.921 40.6865 110.475 51.9675 95.1978 64.9412L88.332 71.0254L85.832 73.3446C100.929 59.2046 136.507 46.8316 188.031 39.903C285.734 26.7643 403.776 38.1783 451.684 65.397C456.697 68.2448 460.743 71.1528 463.858 74.0923Z" fill="url(#paint1_linear_1831_13335)"/>
<path d="M519.929 148.906L516.702 142.787L514.186 138.258C510.487 131.768 503.285 125.315 492.337 119.094C433.39 85.6042 288.15 71.5602 167.935 87.7262C94.3583 97.6204 47.2082 116.538 35.2118 137.405L32.6741 141.933L29.4238 148.043C40.6713 126.306 89.1867 106.503 165.603 96.2268C288.424 79.7104 436.812 94.0588 497.037 128.275C508.814 134.966 516.348 141.922 519.929 148.906Z" fill="url(#paint2_linear_1831_13335)"/>
<path d="M547.712 238.775L546.133 228.104L545.862 226.519C544.125 216.55 535.198 206.502 518.378 196.946C452.338 159.426 289.621 143.692 154.939 161.803C63.012 174.165 7.90623 199.1 3.18323 225.616L2.90583 227.201L1.28711 237.866C4.86193 210.824 60.534 185.276 154.158 172.685C289.696 154.459 453.448 170.293 519.908 208.052C537.377 217.977 546.385 228.428 547.712 238.775Z" fill="url(#paint3_linear_1831_13335)"/>
<path d="M543.147 335.175L545.463 323.844L545.607 323.05C549.696 219.104 86.282 226.735 13.3827 297.613C1.30359 309.357 2.59311 318.659 3.07857 322.161L5.48571 334.254C-1.03021 304.987 55.1025 276.244 155.769 262.707C289.305 244.75 450.639 260.35 516.118 297.551C537.482 309.689 546.003 322.628 543.147 335.175Z" fill="url(#paint4_linear_1831_13335)"/>
<path d="M507.164 421.59L513.467 411.166C521.083 397.942 514.571 383.935 491.708 370.945C432.804 337.48 287.671 323.446 167.544 339.6C69.6783 352.761 18.6012 381.897 34.881 410.339L39.7882 418.608L41.0837 420.685C23.3592 392.589 73.2839 363.594 170.025 350.585C287.338 334.809 429.07 348.514 486.594 381.195C509.566 394.247 515.634 408.351 507.164 421.59Z" fill="url(#paint5_linear_1831_13335)"/>
<path d="M443.525 491.591L453.38 483.553C468.101 471.063 465.955 457 443.436 444.206C397.571 418.148 284.565 407.221 191.029 419.799C105.704 431.274 66.0559 458.344 94.5692 482.789L99.2755 486.753L104.285 490.782C66.7702 457.38 144.9 429.805 241.408 425.005C372.243 418.499 483.734 452.949 447.089 488.559C446.082 489.537 444.594 490.681 443.525 491.591Z" fill="url(#paint6_linear_1831_13335)"/>
<path d="M179.497 531.468C176.308 530.484 173.153 529.427 170.033 528.297C173.968 530.532 178.707 532.586 184.106 534.444C188.489 535.861 194.323 537.785 198.743 539.079C191.108 536.897 184.567 534.348 179.497 531.468Z" fill="url(#paint7_linear_1831_13335)"/>
<path d="M179.496 531.467C153.909 516.93 175.468 499.457 227.65 492.44C279.831 485.423 342.875 491.519 368.462 506.056C389.885 518.228 378.257 532.458 343.276 540.885C348.676 539.388 355.853 537.304 361.201 535.629C390.952 526.214 399.107 512.363 377.942 500.338C349.79 484.344 280.426 477.637 223.014 485.357C165.601 493.078 141.881 512.302 170.032 528.297C173.152 529.426 176.307 530.484 179.496 531.467Z" fill="url(#paint8_linear_1831_13335)"/>
<path d="M258.883 540.3C254.805 537.983 258.242 535.198 266.558 534.08C274.875 532.962 284.922 533.933 289 536.25C293.078 538.567 289.642 541.352 281.326 542.47C273.009 543.588 262.961 542.617 258.883 540.3C255.263 540.554 251.663 540.722 248.086 540.806C255.089 544.784 272.342 546.452 286.622 544.532C300.903 542.612 306.803 537.83 299.801 533.852C292.798 529.873 275.545 528.205 261.265 530.125C246.984 532.046 241.084 536.828 248.086 540.806C251.663 540.722 255.263 540.554 258.883 540.3Z" fill="url(#paint9_linear_1831_13335)"/>
<path d="M238.06 17.3674C228.077 11.6956 236.488 4.87823 256.848 2.14039C277.207 -0.597441 301.805 1.78101 311.788 7.45281C321.771 13.1246 313.359 19.942 293 22.6798C272.64 25.4176 248.043 23.0392 238.06 17.3674C241.583 16.3306 245.13 15.3701 248.7 14.4877C255.802 18.5228 273.302 20.215 287.787 18.2671C302.271 16.3193 308.256 11.4692 301.153 7.434C294.051 3.39883 276.551 1.7067 262.066 3.65451C247.582 5.60233 241.597 10.4525 248.7 14.4877C245.13 15.3701 241.583 16.3306 238.06 17.3674Z" fill="url(#paint10_linear_1831_13335)"/>
<path d="M374.947 17.5671L379.342 19.3375C382.682 20.7069 385.717 22.1577 388.408 23.6863C419.153 41.1539 393.247 62.1495 330.546 70.5813C267.844 79.0131 192.091 71.6881 161.346 54.2205C164.397 52.1228 167.484 50.086 170.607 48.112C237.184 82.374 397.038 63.6328 390.873 32.476C388.939 22.7026 371.752 16.3659 365.282 13.9805L374.947 17.5671" fill="url(#paint11_linear_1831_13335)"/>
<path d="M161.345 54.2216C140.666 42.4733 145.614 29.129 170.148 19.0847C175.432 17.049 182.509 14.4132 187.862 12.5664C157.641 22.0133 149.265 35.9886 170.606 48.1132C167.483 50.0871 164.396 52.1239 161.345 54.2216Z" fill="url(#paint12_linear_1831_13335)"/>
<path d="M461.374 71.7659L463.865 74.0934C503.485 117.853 370.734 149.975 238.932 142.94C177.287 139.65 129.829 129.569 97.875 112.978C100.261 110.05 102.696 107.169 105.18 104.335C151.114 130.432 264.291 141.376 357.968 128.779C443.562 117.268 483.26 90.087 454.434 65.5742L461.374 71.7659" fill="url(#paint13_linear_1831_13335)"/>
<path d="M97.8742 112.977C86.8048 105.989 66.2005 92.9821 85.8381 73.3448L88.338 71.0256L95.2038 64.9414C80.478 77.4471 82.6339 91.5256 105.179 104.334C102.695 107.168 100.26 110.05 97.8742 112.977Z" fill="url(#paint14_linear_1831_13335)"/>
<path d="M516.707 142.787L519.933 148.906C534.662 177.635 482.502 206.848 383.7 220.134C260.878 236.651 112.49 222.302 52.2656 188.086C53.7824 184.572 55.3617 181.088 57.002 177.637C195.974 249.155 529.651 210.035 516.781 144.998C516.36 142.873 515.202 140.173 514.19 138.258L516.707 142.787" fill="url(#paint15_linear_1831_13335)"/>
<path d="M52.2661 188.087C29.5116 175.16 22.5984 161.245 29.4286 148.045L32.6789 141.934L35.2166 137.406C29.2627 151.146 30.971 161.627 57.0024 177.638C55.3621 181.089 53.7828 184.573 52.2661 188.087Z" fill="url(#paint16_linear_1831_13335)"/>
<path d="M546.139 228.101L547.718 238.772C551.44 267.79 494.749 295.983 394.836 309.419C259.298 327.646 95.546 311.812 29.0859 274.053C29.5354 270.196 30.0599 266.355 30.658 262.53C96.6981 300.05 259.415 315.784 394.097 297.673C494.475 284.174 550.951 255.685 545.867 226.516L546.139 228.101" fill="url(#paint17_linear_1831_13335)"/>
<path d="M29.0863 274.054C8.53376 262.377 -0.307639 249.971 1.29278 237.864L2.91149 227.199L3.1889 225.613C0.992275 237.946 9.69397 250.62 30.6583 262.531C30.0603 266.355 29.5357 270.197 29.0863 274.054Z" fill="url(#paint18_linear_1831_13335)"/>
<path d="M545.47 323.841L543.154 335.172C537.257 361.081 482.861 385.324 392.895 397.422C259.358 415.379 98.0242 399.779 32.5456 362.578C31.8092 358.983 31.145 355.349 30.5547 351.679C96.5781 389.189 259.254 404.919 393.902 386.813C485.771 374.458 540.855 349.545 545.614 323.047L545.47 323.841" fill="url(#paint19_linear_1831_13335)"/>
<path d="M32.546 362.58C16.4282 353.423 7.62075 343.81 5.49309 334.253L3.08594 322.16C5.47878 329.669 8.45673 339.014 30.5551 351.681C31.1455 355.351 31.8097 358.985 32.546 362.58Z" fill="url(#paint20_linear_1831_13335)"/>
<path d="M507.169 421.597C494.43 441.509 448.804 459.465 378.34 468.941C261.028 484.716 119.295 471.012 61.7722 438.33C60.0193 435.42 58.3258 432.46 56.6934 429.451C115.597 462.916 260.73 476.95 380.857 460.796C454.358 450.912 501.467 432.017 513.472 411.172L507.169 421.597" fill="url(#paint21_linear_1831_13335)"/>
<path d="M61.7731 438.329C51.6862 432.598 44.8584 426.664 41.0895 420.69L39.794 418.612L34.8867 410.344C38.5899 416.814 45.7784 423.247 56.6942 429.449C58.3267 432.458 60.0202 435.419 61.7731 438.329Z" fill="url(#paint22_linear_1831_13335)"/>
<path d="M443.531 491.592C382.81 533.128 187.775 535.753 112.28 496.05C109.713 494.014 107.192 491.916 104.719 489.757C150.583 515.815 263.589 526.742 357.125 514.164C404.735 507.761 438.124 496.503 453.385 483.555L443.531 491.592" fill="url(#paint23_linear_1831_13335)"/>
<path d="M112.28 496.049C109.852 494.516 106.596 492.493 104.29 490.782L99.2805 486.754L94.5742 482.789C97.3178 485.141 100.693 487.469 104.718 489.756C107.191 491.915 109.712 494.013 112.28 496.049Z" fill="url(#paint24_linear_1831_13335)"/>
<path d="M343.282 540.886C336.484 542.524 328.805 543.942 320.314 545.084C278.472 550.711 229.647 547.906 198.749 539.079C194.349 537.717 188.471 535.93 184.111 534.445C217.345 545.885 275.578 549.92 324.967 543.278C339.214 541.363 351.387 538.738 361.207 535.63C355.853 537.284 348.71 539.491 343.282 540.886" fill="url(#paint25_linear_1831_13335)"/>
<defs>
<linearGradient id="paint0_linear_1831_13335" x1="189.039" y1="4.80655" x2="193.836" y2="39.3188" gradientUnits="userSpaceOnUse">
<stop stop-color="#EB2F96"/>
<stop offset="1" stop-color="#4A99E9"/>
</linearGradient>
<linearGradient id="paint1_linear_1831_13335" x1="119.979" y1="36.4961" x2="137.402" y2="124.044" gradientUnits="userSpaceOnUse">
<stop stop-color="#EB2F96"/>
<stop offset="1" stop-color="#4A99E9"/>
</linearGradient>
<linearGradient id="paint2_linear_1831_13335" x1="73.731" y1="92.2476" x2="103.828" y2="222.453" gradientUnits="userSpaceOnUse">
<stop stop-color="#EB2F96"/>
<stop offset="1" stop-color="#4A99E9"/>
</linearGradient>
<linearGradient id="paint3_linear_1831_13335" x1="50.6456" y1="168.263" x2="91.9689" y2="328.292" gradientUnits="userSpaceOnUse">
<stop stop-color="#EB2F96"/>
<stop offset="1" stop-color="#4A99E9"/>
</linearGradient>
<linearGradient id="paint4_linear_1831_13335" x1="51.8206" y1="259.586" x2="99.1355" y2="429.392" gradientUnits="userSpaceOnUse">
<stop stop-color="#EB2F96"/>
<stop offset="1" stop-color="#4A99E9"/>
</linearGradient>
<linearGradient id="paint5_linear_1831_13335" x1="75.6674" y1="347.569" x2="125.76" y2="511.454" gradientUnits="userSpaceOnUse">
<stop stop-color="#EB2F96"/>
<stop offset="1" stop-color="#4A99E9"/>
</linearGradient>
<linearGradient id="paint6_linear_1831_13335" x1="119.491" y1="427.319" x2="167.004" y2="566.717" gradientUnits="userSpaceOnUse">
<stop stop-color="#EB2F96"/>
<stop offset="1" stop-color="#4A99E9"/>
</linearGradient>
<linearGradient id="paint7_linear_1831_13335" x1="172.627" y1="530.081" x2="182.431" y2="545.714" gradientUnits="userSpaceOnUse">
<stop stop-color="#EB2F96"/>
<stop offset="1" stop-color="#4A99E9"/>
</linearGradient>
<linearGradient id="paint8_linear_1831_13335" x1="179.103" y1="491.869" x2="221.713" y2="592.485" gradientUnits="userSpaceOnUse">
<stop stop-color="#EB2F96"/>
<stop offset="1" stop-color="#4A99E9"/>
</linearGradient>
<linearGradient id="paint9_linear_1831_13335" x1="250.343" y1="531.975" x2="262.683" y2="558.579" gradientUnits="userSpaceOnUse">
<stop stop-color="#EB2F96"/>
<stop offset="1" stop-color="#4A99E9"/>
</linearGradient>
<linearGradient id="paint10_linear_1831_13335" x1="241.276" y1="4.77805" x2="258.87" y2="42.7065" gradientUnits="userSpaceOnUse">
<stop stop-color="#EB2F96"/>
<stop offset="1" stop-color="#4A99E9"/>
</linearGradient>
<linearGradient id="paint11_linear_1831_13335" x1="183.025" y1="23.9237" x2="226.246" y2="127.274" gradientUnits="userSpaceOnUse">
<stop stop-color="#EB2F96"/>
<stop offset="1" stop-color="#4A99E9"/>
</linearGradient>
<linearGradient id="paint12_linear_1831_13335" x1="151.967" y1="19.458" x2="188.083" y2="39.9443" gradientUnits="userSpaceOnUse">
<stop stop-color="#EB2F96"/>
<stop offset="1" stop-color="#4A99E9"/>
</linearGradient>
<linearGradient id="paint13_linear_1831_13335" x1="131.578" y1="78.5342" x2="180.994" y2="219.472" gradientUnits="userSpaceOnUse">
<stop stop-color="#EB2F96"/>
<stop offset="1" stop-color="#4A99E9"/>
</linearGradient>
<linearGradient id="paint14_linear_1831_13335" x1="80.169" y1="72.8885" x2="109.934" y2="83.0896" gradientUnits="userSpaceOnUse">
<stop stop-color="#EB2F96"/>
<stop offset="1" stop-color="#4A99E9"/>
</linearGradient>
<linearGradient id="paint15_linear_1831_13335" x1="94.7321" y1="152.938" x2="146.132" y2="316.007" gradientUnits="userSpaceOnUse">
<stop stop-color="#EB2F96"/>
<stop offset="1" stop-color="#4A99E9"/>
</linearGradient>
<linearGradient id="paint16_linear_1831_13335" x1="29.6319" y1="145.791" x2="61.948" y2="157.279" gradientUnits="userSpaceOnUse">
<stop stop-color="#EB2F96"/>
<stop offset="1" stop-color="#4A99E9"/>
</linearGradient>
<linearGradient id="paint17_linear_1831_13335" x1="75.9494" y1="241.483" x2="125.017" y2="409.973" gradientUnits="userSpaceOnUse">
<stop stop-color="#EB2F96"/>
<stop offset="1" stop-color="#4A99E9"/>
</linearGradient>
<linearGradient id="paint18_linear_1831_13335" x1="3.77853" y1="233.627" x2="35.318" y2="245.148" gradientUnits="userSpaceOnUse">
<stop stop-color="#EB2F96"/>
<stop offset="1" stop-color="#4A99E9"/>
</linearGradient>
<linearGradient id="paint19_linear_1831_13335" x1="77.0799" y1="336.585" x2="118.059" y2="491.036" gradientUnits="userSpaceOnUse">
<stop stop-color="#EB2F96"/>
<stop offset="1" stop-color="#4A99E9"/>
</linearGradient>
<linearGradient id="paint20_linear_1831_13335" x1="5.74706" y1="328.847" x2="35.6847" y2="341.913" gradientUnits="userSpaceOnUse">
<stop stop-color="#EB2F96"/>
<stop offset="1" stop-color="#4A99E9"/>
</linearGradient>
<linearGradient id="paint21_linear_1831_13335" x1="97.9541" y1="421.813" x2="126.909" y2="544.948" gradientUnits="userSpaceOnUse">
<stop stop-color="#EB2F96"/>
<stop offset="1" stop-color="#4A99E9"/>
</linearGradient>
<linearGradient id="paint22_linear_1831_13335" x1="37.3154" y1="414.974" x2="61.7536" y2="429.033" gradientUnits="userSpaceOnUse">
<stop stop-color="#EB2F96"/>
<stop offset="1" stop-color="#4A99E9"/>
</linearGradient>
<linearGradient id="paint23_linear_1831_13335" x1="136.214" y1="490.303" x2="151.722" y2="569.681" gradientUnits="userSpaceOnUse">
<stop stop-color="#EB2F96"/>
<stop offset="1" stop-color="#4A99E9"/>
</linearGradient>
<linearGradient id="paint24_linear_1831_13335" x1="96.1735" y1="484.983" x2="109.24" y2="495.43" gradientUnits="userSpaceOnUse">
<stop stop-color="#EB2F96"/>
<stop offset="1" stop-color="#4A99E9"/>
</linearGradient>
<linearGradient id="paint25_linear_1831_13335" x1="200.108" y1="536.687" x2="203.551" y2="563.627" gradientUnits="userSpaceOnUse">
<stop stop-color="#EB2F96"/>
<stop offset="1" stop-color="#4A99E9"/>
</linearGradient>
</defs>
</svg>