<svg xmlns="http://www.w3.org/2000/svg" version="1.1" xmlns:xlink="http://www.w3.org/1999/xlink" xmlns:svgjs="http://svgjs.com/svgjs" width="1000" height="1000"><rect width="1000" height="1000" rx="200" ry="200" fill="#1f1e1e"></rect><g transform="matrix(18.42105263157895,0,0,18.42105263157895,151.58617280658922,325)"><svg xmlns="http://www.w3.org/2000/svg" version="1.1" xmlns:xlink="http://www.w3.org/1999/xlink" xmlns:svgjs="http://svgjs.com/svgjs" width="38" height="19"><svg width="38" height="19" viewBox="0 0 38 19" fill="none" xmlns="http://www.w3.org/2000/svg">
<path d="M10.3572 0C11.8428 0 13.1343 0.261778 14.2317 0.785334C15.3374 1.30889 16.1858 2.04778 16.7766 3.002C17.3675 3.94778 17.6629 5.04133 17.6629 6.28267C17.6629 7.524 17.3675 8.61756 16.7766 9.56333C16.1858 10.5091 15.3374 11.2438 14.2317 11.7673C13.1259 12.2909 11.8344 12.5527 10.3572 12.5527H4.29229V19H0V0H10.3572ZM10.1293 9.006C11.1253 9.006 11.9019 8.76533 12.459 8.284C13.0246 7.80267 13.3074 7.13556 13.3074 6.28267C13.3074 5.42978 13.0246 4.76267 12.459 4.28133C11.9019 3.79156 11.1253 3.54667 10.1293 3.54667H4.29229V9.006H10.1293Z" fill="#4A99E9"></path>
<path d="M34.5639 11.9447H37.8179V15.2253H34.5639V19H30.2969V15.2253H18.1165V12.1727L29.1194 0H34.5639V11.9447ZM30.2969 11.9447V3.496L22.6746 11.9447H30.2969Z" fill="#EB2F96"></path>
</svg></svg></g></svg>