<svg width="165" height="19" viewBox="0 0 165 19" fill="none" xmlns="http://www.w3.org/2000/svg">
<path d="M10.5465 0C12.0593 0 13.3744 0.256645 14.4918 0.769935C15.6178 1.28323 16.4816 2.00763 17.0833 2.94314C17.6849 3.87037 17.9858 4.94248 17.9858 6.15948C17.9858 7.37647 17.6849 8.44858 17.0833 9.37582C16.4816 10.3031 15.6178 11.0233 14.4918 11.5366C13.3658 12.0499 12.0507 12.3065 10.5465 12.3065H4.37074V18.6275H0V0H10.5465ZM10.3144 8.82941C11.3287 8.82941 12.1195 8.59346 12.6867 8.12157C13.2626 7.64967 13.5506 6.99564 13.5506 6.15948C13.5506 5.32331 13.2626 4.66928 12.6867 4.19739C12.1195 3.71721 11.3287 3.47713 10.3144 3.47713H4.37074V8.82941H10.3144Z" fill="#4A99E9"/>
<path d="M28.7567 19C26.9517 19 25.3529 18.6895 23.9605 18.0686C22.5766 17.4477 21.5022 16.5784 20.7372 15.4608C19.9723 14.3349 19.5898 13.0392 19.5898 11.5739C19.5898 10.1002 19.9723 8.80044 20.7372 7.67451C21.5022 6.54858 22.5766 5.67516 23.9605 5.05425C25.3529 4.43333 26.9517 4.12288 28.7567 4.12288C30.5617 4.12288 32.1562 4.43333 33.54 5.05425C34.9325 5.67516 36.0112 6.54858 36.7762 7.67451C37.5412 8.80044 37.9237 10.1002 37.9237 11.5739C37.9237 13.0392 37.5412 14.3349 36.7762 15.4608C36.0112 16.5784 34.9325 17.4477 33.54 18.0686C32.1562 18.6895 30.5617 19 28.7567 19ZM23.9476 11.5739C23.9476 12.4514 24.141 13.2131 24.5278 13.8588C24.9146 14.4963 25.469 14.9889 26.191 15.3366C26.913 15.6843 27.7682 15.8582 28.7567 15.8582C29.7452 15.8582 30.5961 15.6843 31.3095 15.3366C32.0315 14.9889 32.5859 14.4963 32.9727 13.8588C33.3595 13.2131 33.5529 12.4514 33.5529 11.5739C33.5529 10.6963 33.3595 9.93464 32.9727 9.28889C32.5859 8.64314 32.0315 8.14641 31.3095 7.79869C30.5875 7.45098 29.7366 7.27712 28.7567 7.27712C27.7682 7.27712 26.913 7.45098 26.191 7.79869C25.469 8.14641 24.9146 8.64314 24.5278 9.28889C24.141 9.93464 23.9476 10.6963 23.9476 11.5739Z" fill="#4A99E9"/>
<path d="M57.0136 14.1817C57.0136 15.2 56.7042 16.0693 56.0853 16.7895C55.4664 17.5098 54.5553 18.0603 53.352 18.4412C52.1486 18.8137 50.6874 19 48.9683 19C47.1977 19 45.6462 18.7889 44.314 18.3667C42.9817 17.9362 41.9459 17.3359 41.2067 16.566C40.4675 15.7961 40.0722 14.8978 40.0206 13.8712H44.3913C44.5546 14.5667 45.0489 15.1131 45.874 15.5105C46.6992 15.9078 47.7736 16.1065 49.0973 16.1065C51.5641 16.1065 52.7976 15.5808 52.7976 14.5294C52.7976 14.2645 52.6987 14.0492 52.501 13.8837C52.3119 13.7181 51.9982 13.5856 51.5598 13.4863C51.1215 13.3786 50.5155 13.2917 49.7419 13.2255L47.0086 13.002C44.6535 12.8281 42.9688 12.3728 41.9545 11.6359C40.9403 10.8908 40.4332 9.91808 40.4332 8.71765C40.4332 7.72418 40.7555 6.88388 41.4001 6.19673C42.0534 5.50959 42.9688 4.99216 44.1464 4.64444C45.3239 4.29673 46.6992 4.12288 48.2721 4.12288C49.8365 4.12288 51.2418 4.32985 52.4881 4.74379C53.7345 5.14946 54.7272 5.7207 55.4664 6.45752C56.2142 7.19434 56.6354 8.03878 56.73 8.99085H52.3592C52.2303 8.41133 51.8134 7.92702 51.1086 7.53791C50.4038 7.14052 49.3852 6.94183 48.0529 6.94183C46.9785 6.94183 46.1491 7.07015 45.5646 7.3268C44.9801 7.57516 44.6879 7.93116 44.6879 8.39477C44.6879 8.74248 44.8727 9.01982 45.2423 9.2268C45.6205 9.42549 46.278 9.56209 47.2149 9.6366L50.7734 9.92222C52.3205 10.0464 53.5497 10.2906 54.4608 10.6549C55.3805 11.0192 56.0337 11.4952 56.4205 12.083C56.8159 12.6625 57.0136 13.3621 57.0136 14.1817Z" fill="#4A99E9"/>
<path d="M58.3517 5.78693L61.4073 4.8183L63.2381 0.757518H65.7136V4.50784H72.1988V7.62484H65.7136V12.7536C65.7136 13.4987 65.8167 14.0865 66.023 14.517C66.2293 14.9475 66.5602 15.258 67.0158 15.4484C67.4713 15.6388 68.0945 15.734 68.8853 15.734C69.6073 15.734 70.2519 15.6678 70.8192 15.5353C71.3951 15.4028 71.9409 15.2041 72.4566 14.9392V18.1804C71.9237 18.4039 71.2447 18.5943 70.4195 18.7516C69.5944 18.9172 68.7649 19 67.9312 19C65.7136 19 64.0719 18.5033 63.006 17.5098C61.9402 16.5163 61.4073 15.1296 61.4073 13.3497V7.62484H58.3517V5.78693Z" fill="#4A99E9"/>
<path d="M91.0123 11.7105H94.3258V14.9268H91.0123V18.6275H86.6674V14.9268H74.2643V11.934L85.4683 0H91.0123V11.7105ZM86.6674 11.7105V3.42745L78.9058 11.7105H86.6674Z" fill="#EB2F96"/>
<path d="M105.544 19C103.807 19 102.252 18.6895 100.876 18.0686C99.5011 17.4394 98.4266 16.5619 97.6531 15.4359C96.8795 14.3017 96.4927 12.9978 96.4927 11.5242C96.4927 10.0754 96.8623 8.79216 97.6015 7.67451C98.3407 6.54858 99.3678 5.67516 100.683 5.05425C101.998 4.43333 103.485 4.12288 105.144 4.12288C106.811 4.12288 108.264 4.48301 109.502 5.20327C110.739 5.91525 111.689 6.93355 112.351 8.25817C113.022 9.57451 113.357 11.1102 113.357 12.8654H101.108C101.435 13.8257 102.071 14.5667 103.017 15.0882C103.962 15.6098 105.161 15.8706 106.614 15.8706C107.723 15.8706 108.836 15.7174 109.953 15.4111C111.07 15.1048 112.072 14.6743 112.957 14.1196V16.9013C111.986 17.5636 110.856 18.081 109.566 18.4536C108.286 18.8179 106.945 19 105.544 19ZM109.167 10.1085C108.917 9.17299 108.445 8.45272 107.748 7.94771C107.061 7.43442 106.201 7.17778 105.17 7.17778C104.078 7.17778 103.163 7.4427 102.423 7.97255C101.693 8.49412 101.212 9.2061 100.979 10.1085H109.167Z" fill="#EB2F96"/>
<path d="M118.696 4.50784L123.453 14.9889L128.224 4.50784H132.826L125.826 18.6275H120.939L113.938 4.50784H118.696Z" fill="#EB2F96"/>
<path d="M142.534 19C140.798 19 139.242 18.6895 137.867 18.0686C136.492 17.4394 135.418 16.5619 134.644 15.4359C133.87 14.3017 133.484 12.9978 133.484 11.5242C133.484 10.0754 133.853 8.79216 134.592 7.67451C135.332 6.54858 136.359 5.67516 137.674 5.05425C138.989 4.43333 140.476 4.12288 142.135 4.12288C143.802 4.12288 145.255 4.48301 146.493 5.20327C147.73 5.91525 148.68 6.93355 149.342 8.25817C150.012 9.57451 150.348 11.1102 150.348 12.8654H138.099C138.426 13.8257 139.062 14.5667 140.007 15.0882C140.953 15.6098 142.152 15.8706 143.605 15.8706C144.713 15.8706 145.827 15.7174 146.944 15.4111C148.061 15.1048 149.063 14.6743 149.948 14.1196V16.9013C148.977 17.5636 147.846 18.081 146.557 18.4536C145.276 18.8179 143.936 19 142.534 19ZM146.157 10.1085C145.908 9.17299 145.435 8.45272 144.739 7.94771C144.052 7.43442 143.192 7.17778 142.161 7.17778C141.069 7.17778 140.154 7.4427 139.414 7.97255C138.684 8.49412 138.202 9.2061 137.97 10.1085H146.157Z" fill="#EB2F96"/>
<path d="M156.968 4.50784L157.625 8.32026C158.098 7.0122 158.786 5.98562 159.688 5.24052C160.591 4.49542 161.721 4.12288 163.079 4.12288C163.724 4.12288 164.364 4.19739 165 4.3464V7.92288C164.149 7.73246 163.281 7.63725 162.396 7.63725C161.519 7.63725 160.737 7.81525 160.049 8.17124C159.361 8.52723 158.82 9.07364 158.425 9.81046C158.038 10.539 157.844 11.4455 157.844 12.5301V18.6275H153.538V9.13987L152.61 4.50784H156.968Z" fill="#EB2F96"/>
</svg>