<svg width="39" height="19" viewBox="0 0 39 19" fill="none" xmlns="http://www.w3.org/2000/svg">
<path d="M38.0108 0V3.65385H30.615V18.2692H26.3959V3.65385H19V0H38.0108Z" fill="#4A99E9"/>
<path d="M4.28116 12.6667C4.36389 13.2919 4.63275 13.8359 5.08776 14.2987C5.55103 14.7534 6.16736 15.1066 6.93672 15.3583C7.71436 15.61 8.60782 15.7359 9.6171 15.7359C10.585 15.7359 11.4247 15.6425 12.1362 15.4558C12.8559 15.269 13.406 14.997 13.7866 14.6397C14.1754 14.2825 14.3698 13.8603 14.3698 13.3731C14.3698 12.9671 14.2623 12.6342 14.0472 12.3744C13.8404 12.1145 13.4846 11.9034 12.98 11.741C12.4836 11.5705 11.797 11.4365 10.9201 11.3391L7.1725 10.925C5.56758 10.7545 4.25634 10.45 3.23879 10.0115C2.22951 9.57308 1.48496 8.99658 1.00514 8.28205C0.533594 7.56752 0.29782 6.69872 0.29782 5.67564C0.29782 4.50641 0.653549 3.49551 1.36501 2.64295C2.08474 1.79038 3.10229 1.13675 4.41766 0.682051C5.73303 0.22735 7.26763 0 9.02146 0C10.7339 0 12.2644 0.24765 13.6129 0.742949C14.9696 1.23825 16.0409 1.93248 16.8268 2.82564C17.6127 3.7188 18.0429 4.75 18.1174 5.91923H13.8486C13.7742 5.38333 13.5301 4.91645 13.1165 4.51859C12.7028 4.12073 12.1362 3.81218 11.4164 3.59295C10.705 3.37372 9.8777 3.2641 8.9346 3.2641C8.04114 3.2641 7.2635 3.35342 6.60168 3.53205C5.93985 3.71068 5.43108 3.97051 5.07535 4.31154C4.71962 4.64444 4.54175 5.04637 4.54175 5.51731C4.54175 5.89081 4.64103 6.19936 4.83957 6.44295C5.04639 6.68654 5.38144 6.88953 5.84472 7.05192C6.31627 7.21432 6.95327 7.34423 7.75573 7.44167L11.6398 7.90449C13.3688 8.09936 14.738 8.39573 15.7472 8.79359C16.7565 9.18333 17.4845 9.70705 17.9312 10.3647C18.378 11.0224 18.6013 11.8709 18.6013 12.9103C18.6013 14.1282 18.2249 15.1959 17.4721 16.1135C16.7193 17.031 15.6562 17.7415 14.2829 18.2449C12.9179 18.7483 11.3378 19 9.54265 19C7.70609 19 6.07635 18.7361 4.65344 18.2083C3.23052 17.6806 2.10956 16.9376 1.29055 15.9795C0.479821 15.0214 0.0496367 13.9171 0 12.6667H4.28116Z" fill="#EB2F96"/>
</svg>
