<svg width="37" height="19" viewBox="0 0 37 19" fill="none" xmlns="http://www.w3.org/2000/svg">
<path d="M4.14 12.6C4.22 13.216 4.48 13.752 4.92 14.208C5.368 14.656 5.964 15.004 6.708 15.252C7.46 15.5 8.324 15.624 9.3 15.624C10.236 15.624 11.048 15.532 11.736 15.348C12.432 15.164 12.964 14.896 13.332 14.544C13.708 14.192 13.896 13.776 13.896 13.296C13.896 12.896 13.792 12.568 13.584 12.312C13.384 12.056 13.04 11.848 12.552 11.688C12.072 11.52 11.408 11.388 10.56 11.292L6.936 10.884C5.384 10.716 4.116 10.416 3.132 9.98399C2.156 9.55199 1.436 8.98399 0.972 8.27999C0.516 7.57599 0.287998 6.71999 0.287998 5.71199C0.287998 4.55999 0.632 3.56399 1.32 2.72399C2.016 1.88399 3 1.23999 4.272 0.791992C5.544 0.343992 7.028 0.119995 8.724 0.119995C10.38 0.119995 11.86 0.36399 13.164 0.85199C14.476 1.33999 15.512 2.02399 16.272 2.90399C17.032 3.78399 17.448 4.8 17.52 5.952H13.392C13.32 5.424 13.084 4.96399 12.684 4.57199C12.284 4.17999 11.736 3.876 11.04 3.66C10.352 3.444 9.552 3.33599 8.64 3.33599C7.776 3.33599 7.024 3.42399 6.384 3.59999C5.744 3.77599 5.252 4.03199 4.908 4.36799C4.564 4.69599 4.392 5.09199 4.392 5.55599C4.392 5.92399 4.488 6.22799 4.68 6.46799C4.88 6.70799 5.204 6.90799 5.652 7.06799C6.108 7.22799 6.724 7.356 7.5 7.452L11.256 7.90799C12.928 8.09999 14.252 8.39199 15.228 8.78399C16.204 9.16799 16.908 9.68399 17.34 10.332C17.772 10.98 17.988 11.816 17.988 12.84C17.988 14.04 17.624 15.092 16.896 15.996C16.168 16.9 15.14 17.6 13.812 18.096C12.492 18.592 10.964 18.84 9.228 18.84C7.452 18.84 5.876 18.58 4.5 18.06C3.124 17.54 2.04 16.808 1.248 15.864C0.464001 14.92 0.048 13.832 0 12.6H4.14Z" fill="#6A8CEC"/>
<path d="M36.384 0.480011V4.08001H29.232V18.48H25.152V4.08001H18V0.480011H36.384Z" fill="#2E54BE"/>
</svg>
