<svg width="16" height="17" viewBox="0 0 16 17" fill="none" xmlns="http://www.w3.org/2000/svg">
<g clip-path="url(#clip0_6473_87091)">
<path d="M7.99793 3.56562C9.69248 3.56562 11.0662 2.76743 11.0662 1.78281C11.0662 0.798192 9.69248 0 7.99793 0C6.30339 0 4.92969 0.798192 4.92969 1.78281C4.92969 2.76743 6.30339 3.56562 7.99793 3.56562Z" fill="white"/>
<path d="M7.99793 16.9992C9.69248 16.9992 11.0662 16.201 11.0662 15.2164C11.0662 14.2318 9.69248 13.4336 7.99793 13.4336C6.30339 13.4336 4.92969 14.2318 4.92969 15.2164C4.92969 16.201 6.30339 16.9992 7.99793 16.9992Z" fill="white"/>
<path d="M3.72068 6.03175C4.56796 4.56564 4.56246 2.97776 3.7084 2.48512C2.85434 1.99248 1.47514 2.78162 0.627873 4.24773C-0.2194 5.71383 -0.213901 7.30171 0.640155 7.79435C1.49421 8.287 2.87341 7.49785 3.72068 6.03175Z" fill="white"/>
<path d="M15.367 12.7493C16.2143 11.2832 16.2093 9.69558 15.3558 9.20327C14.5023 8.71096 13.1236 9.50037 12.2763 10.9665C11.429 12.4326 11.4341 14.0202 12.2875 14.5125C13.141 15.0048 14.5198 14.2154 15.367 12.7493Z" fill="white"/>
<path d="M3.71231 14.511C4.56636 14.0183 4.57186 12.4305 3.72459 10.9643C2.87732 9.49824 1.49812 8.7091 0.644062 9.20174C-0.209994 9.69438 -0.215494 11.2823 0.631779 12.7484C1.47905 14.2145 2.85825 15.0036 3.71231 14.511Z" fill="white"/>
<path d="M15.3558 7.79673C16.2093 7.30442 16.2143 5.71681 15.367 4.25071C14.5198 2.78461 13.141 1.99519 12.2875 2.4875C11.4341 2.97981 11.429 4.56742 12.2763 6.03352C13.1236 7.49963 14.5023 8.28904 15.3558 7.79673Z" fill="white"/>
</g>
<defs>
<clipPath id="clip0_6473_87091">
<rect width="16" height="17" fill="white"/>
</clipPath>
</defs>
</svg>
