<svg width="147" height="19" viewBox="0 0 147 19" fill="none" xmlns="http://www.w3.org/2000/svg">
<path d="M4.14 12.6C4.22 13.216 4.48 13.752 4.92 14.208C5.368 14.656 5.964 15.004 6.708 15.252C7.46 15.5 8.324 15.624 9.3 15.624C10.236 15.624 11.048 15.532 11.736 15.348C12.432 15.164 12.964 14.896 13.332 14.544C13.708 14.192 13.896 13.776 13.896 13.296C13.896 12.896 13.792 12.568 13.584 12.312C13.384 12.056 13.04 11.848 12.552 11.688C12.072 11.52 11.408 11.388 10.56 11.292L6.936 10.884C5.384 10.716 4.116 10.416 3.132 9.984C2.156 9.552 1.436 8.984 0.972 8.28C0.516 7.576 0.288 6.72 0.288 5.712C0.288 4.56 0.632 3.564 1.32 2.724C2.016 1.884 3 1.24 4.272 0.792C5.544 0.344 7.028 0.12 8.724 0.12C10.38 0.12 11.86 0.364 13.164 0.852C14.476 1.34 15.512 2.024 16.272 2.904C17.032 3.784 17.448 4.8 17.52 5.952H13.392C13.32 5.424 13.084 4.964 12.684 4.572C12.284 4.18 11.736 3.876 11.04 3.66C10.352 3.444 9.552 3.336 8.64 3.336C7.776 3.336 7.024 3.424 6.384 3.6C5.744 3.776 5.252 4.032 4.908 4.368C4.564 4.696 4.392 5.092 4.392 5.556C4.392 5.924 4.488 6.228 4.68 6.468C4.88 6.708 5.204 6.908 5.652 7.068C6.108 7.228 6.724 7.356 7.5 7.452L11.256 7.908C12.928 8.1 14.252 8.392 15.228 8.784C16.204 9.168 16.908 9.684 17.34 10.332C17.772 10.98 17.988 11.816 17.988 12.84C17.988 14.04 17.624 15.092 16.896 15.996C16.168 16.9 15.14 17.6 13.812 18.096C12.492 18.592 10.964 18.84 9.228 18.84C7.452 18.84 5.876 18.58 4.5 18.06C3.124 17.54 2.04 16.808 1.248 15.864C0.464 14.92 0.048 13.832 0 12.6H4.14Z" fill="#6A8CEC"/>
<path d="M26.1189 18.84C24.8709 18.84 23.7989 18.584 22.9029 18.072C22.0069 17.552 21.3229 16.812 20.8509 15.852C20.3789 14.884 20.1429 13.74 20.1429 12.42V4.836H24.1509V11.832C24.1509 13.04 24.4349 13.964 25.0029 14.604C25.5789 15.236 26.4029 15.552 27.4749 15.552C28.2429 15.552 28.9069 15.388 29.4669 15.06C30.0269 14.724 30.4549 14.248 30.7509 13.632C31.0549 13.008 31.2069 12.276 31.2069 11.436V4.836H35.2149V13.908L36.0549 18.48H32.0469L31.5549 15.444C30.9869 16.532 30.2309 17.372 29.2869 17.964C28.3429 18.548 27.2869 18.84 26.1189 18.84Z" fill="#6A8CEC"/>
<path d="M42.4601 0V7.86C43.1481 6.78 44.0081 5.944 45.0401 5.352C46.0721 4.76 47.2201 4.464 48.4841 4.464C49.8121 4.464 50.9881 4.764 52.0121 5.364C53.0441 5.964 53.8441 6.812 54.4121 7.908C54.9881 8.996 55.2761 10.248 55.2761 11.664C55.2761 13.072 54.9881 14.32 54.4121 15.408C53.8441 16.496 53.0441 17.34 52.0121 17.94C50.9801 18.54 49.8041 18.84 48.4841 18.84C47.2281 18.84 46.0801 18.544 45.0401 17.952C44.0081 17.352 43.1481 16.508 42.4601 15.42V18.48H38.4401V0H42.4601ZM42.2921 11.664C42.5801 12.456 42.9761 13.16 43.4801 13.776C43.9921 14.384 44.5841 14.86 45.2561 15.204C45.9281 15.548 46.6361 15.72 47.3801 15.72C48.1161 15.72 48.7721 15.548 49.3481 15.204C49.9321 14.86 50.3881 14.38 50.7161 13.764C51.0441 13.148 51.2081 12.448 51.2081 11.664C51.2081 10.88 51.0441 10.18 50.7161 9.564C50.3881 8.94 49.9321 8.456 49.3481 8.112C48.7721 7.76 48.1161 7.584 47.3801 7.584C46.6361 7.584 45.9281 7.76 45.2561 8.112C44.5841 8.456 43.9921 8.936 43.4801 9.552C42.9761 10.168 42.5801 10.872 42.2921 11.664Z" fill="#6A8CEC"/>
<path d="M74.916 0.48V4.08H67.764V18.48H63.684V4.08H56.532V0.48H74.916Z" fill="#2E54BE"/>
<path d="M77.1876 4.836L80.7996 14.508L84.4956 4.836H88.3956L92.0316 14.532L95.6556 4.836H99.6636L94.3596 18.48H90.2676L86.4276 8.544L82.5156 18.48H78.4236L73.1316 4.836H77.1876Z" fill="#2E54BE"/>
<path d="M108.488 18.84C106.872 18.84 105.424 18.54 104.144 17.94C102.864 17.332 101.864 16.484 101.144 15.396C100.424 14.3 100.064 13.04 100.064 11.616C100.064 10.216 100.408 8.976 101.096 7.896C101.784 6.808 102.74 5.964 103.964 5.364C105.188 4.764 106.572 4.464 108.116 4.464C109.668 4.464 111.02 4.812 112.172 5.508C113.324 6.196 114.208 7.18 114.824 8.46C115.448 9.732 115.76 11.216 115.76 12.912H104.36C104.664 13.84 105.256 14.556 106.136 15.06C107.016 15.564 108.132 15.816 109.484 15.816C110.516 15.816 111.552 15.668 112.592 15.372C113.632 15.076 114.564 14.66 115.388 14.124V16.812C114.484 17.452 113.432 17.952 112.232 18.312C111.04 18.664 109.792 18.84 108.488 18.84ZM111.86 10.248C111.628 9.344 111.188 8.648 110.54 8.16C109.9 7.664 109.1 7.416 108.14 7.416C107.124 7.416 106.272 7.672 105.584 8.184C104.904 8.688 104.456 9.376 104.24 10.248H111.86Z" fill="#2E54BE"/>
<path d="M125.809 18.84C124.193 18.84 122.745 18.54 121.465 17.94C120.185 17.332 119.185 16.484 118.465 15.396C117.745 14.3 117.385 13.04 117.385 11.616C117.385 10.216 117.729 8.976 118.417 7.896C119.105 6.808 120.061 5.964 121.285 5.364C122.509 4.764 123.893 4.464 125.437 4.464C126.989 4.464 128.341 4.812 129.493 5.508C130.645 6.196 131.529 7.18 132.145 8.46C132.769 9.732 133.081 11.216 133.081 12.912H121.681C121.985 13.84 122.577 14.556 123.457 15.06C124.337 15.564 125.453 15.816 126.805 15.816C127.837 15.816 128.873 15.668 129.913 15.372C130.953 15.076 131.885 14.66 132.709 14.124V16.812C131.805 17.452 130.753 17.952 129.553 18.312C128.361 18.664 127.113 18.84 125.809 18.84ZM129.181 10.248C128.949 9.344 128.509 8.648 127.861 8.16C127.221 7.664 126.421 7.416 125.461 7.416C124.445 7.416 123.593 7.672 122.905 8.184C122.225 8.688 121.777 9.376 121.561 10.248H129.181Z" fill="#2E54BE"/>
<path d="M133.752 6.072L136.596 5.136L138.3 1.212H140.604V4.836H146.64V7.848H140.604V12.804C140.604 13.524 140.7 14.092 140.892 14.508C141.084 14.924 141.392 15.224 141.816 15.408C142.24 15.592 142.82 15.684 143.556 15.684C144.228 15.684 144.828 15.62 145.356 15.492C145.892 15.364 146.4 15.172 146.88 14.916V18.048C146.384 18.264 145.752 18.448 144.984 18.6C144.216 18.76 143.444 18.84 142.668 18.84C140.604 18.84 139.076 18.36 138.084 17.4C137.092 16.44 136.596 15.1 136.596 13.38V7.848H133.752V6.072Z" fill="#2E54BE"/>
</svg>
