<svg width="165" height="19" viewBox="0 0 165 19" fill="none" xmlns="http://www.w3.org/2000/svg">
<path d="M4.28116 12.6667C4.36389 13.2919 4.63275 13.8359 5.08776 14.2987C5.55103 14.7534 6.16736 15.1066 6.93672 15.3583C7.71436 15.61 8.60782 15.7359 9.6171 15.7359C10.585 15.7359 11.4247 15.6425 12.1362 15.4558C12.8559 15.269 13.406 14.997 13.7866 14.6397C14.1754 14.2825 14.3698 13.8603 14.3698 13.3731C14.3698 12.9671 14.2623 12.6342 14.0472 12.3744C13.8404 12.1145 13.4846 11.9034 12.98 11.741C12.4836 11.5705 11.797 11.4365 10.9201 11.3391L7.1725 10.925C5.56758 10.7545 4.25634 10.45 3.23879 10.0115C2.22951 9.57308 1.48496 8.99658 1.00514 8.28205C0.533594 7.56752 0.29782 6.69872 0.29782 5.67564C0.29782 4.50641 0.653549 3.49551 1.36501 2.64295C2.08474 1.79038 3.10229 1.13675 4.41766 0.682051C5.73303 0.22735 7.26763 0 9.02146 0C10.7339 0 12.2644 0.24765 13.6129 0.742949C14.9696 1.23825 16.0409 1.93248 16.8268 2.82564C17.6127 3.7188 18.0429 4.75 18.1174 5.91923H13.8486C13.7742 5.38333 13.5301 4.91645 13.1165 4.51859C12.7028 4.12073 12.1362 3.81218 11.4164 3.59295C10.705 3.37372 9.8777 3.2641 8.9346 3.2641C8.04114 3.2641 7.2635 3.35342 6.60168 3.53205C5.93985 3.71068 5.43108 3.97051 5.07535 4.31154C4.71962 4.64444 4.54175 5.04637 4.54175 5.51731C4.54175 5.89081 4.64103 6.19936 4.83957 6.44295C5.04639 6.68654 5.38144 6.88953 5.84472 7.05192C6.31627 7.21432 6.95327 7.34423 7.75573 7.44167L11.6398 7.90449C13.3688 8.09936 14.738 8.39573 15.7472 8.79359C16.7565 9.18333 17.4845 9.70705 17.9312 10.3647C18.378 11.0224 18.6013 11.8709 18.6013 12.9103C18.6013 14.1282 18.2249 15.1959 17.4721 16.1135C16.7193 17.031 15.6562 17.7415 14.2829 18.2449C12.9179 18.7483 11.3378 19 9.54265 19C7.70609 19 6.07635 18.7361 4.65344 18.2083C3.23052 17.6806 2.10956 16.9376 1.29055 15.9795C0.479821 15.0214 0.0496367 13.9171 0 12.6667H4.28116Z" fill="#EB2F96"/>
<path d="M33.5988 15.5167C32.8956 16.6209 32.0063 17.4776 30.9308 18.0865C29.8636 18.6955 28.6765 19 27.3694 19C26.0044 19 24.7883 18.6955 23.7211 18.0865C22.6539 17.4776 21.8225 16.6209 21.2268 15.5167C20.6395 14.4124 20.3458 13.1457 20.3458 11.7167C20.3458 10.2795 20.6395 9.00876 21.2268 7.90449C21.8225 6.79209 22.6498 5.93141 23.7087 5.32244C24.7759 4.71346 25.9961 4.40897 27.3694 4.40897C28.6765 4.40897 29.8636 4.71346 30.9308 5.32244C32.0063 5.92329 32.8997 6.77585 33.6112 7.88013L33.9711 4.78654H38.2646L37.4456 11.7045L38.2646 18.6346H33.9711L33.5988 15.5167ZM24.5525 11.7167C24.5525 12.5124 24.7221 13.2229 25.0613 13.8481C25.4005 14.4733 25.8679 14.9605 26.4635 15.3096C27.0674 15.6588 27.7499 15.8333 28.511 15.8333C29.2804 15.8333 30.0125 15.6588 30.7075 15.3096C31.4024 14.9605 32.0104 14.4774 32.5316 13.8603C33.0611 13.235 33.4747 12.5205 33.7725 11.7167C33.4747 10.9128 33.0611 10.1983 32.5316 9.57308C32.0104 8.94786 31.4024 8.46068 30.7075 8.11154C30.0125 7.75427 29.2804 7.57564 28.511 7.57564C27.7499 7.57564 27.0674 7.75427 26.4635 8.11154C25.8679 8.46068 25.4005 8.95192 25.0613 9.58526C24.7221 10.2105 24.5525 10.9209 24.5525 11.7167Z" fill="#EB2F96"/>
<path d="M44.1749 4.78654L48.7539 15.066L53.3453 4.78654H57.7753L51.0372 18.6346H46.3341L39.5959 4.78654H44.1749Z" fill="#EB2F96"/>
<path d="M66.6227 19C64.9516 19 63.4542 18.6955 62.1306 18.0865C60.8069 17.4694 59.7728 16.6088 59.0283 15.5045C58.2837 14.3921 57.9114 13.1132 57.9114 11.6679C57.9114 10.247 58.2672 8.98846 58.9786 7.89231C59.6901 6.78804 60.6787 5.93141 61.9444 5.32244C63.2102 4.71346 64.6413 4.40897 66.238 4.40897C67.8429 4.40897 69.241 4.76218 70.4323 5.46859C71.6236 6.16688 72.5377 7.1656 73.1747 8.46474C73.82 9.75577 74.1426 11.262 74.1426 12.9833H62.3539C62.6683 13.9252 63.2805 14.6519 64.1905 15.1635C65.1005 15.675 66.2545 15.9308 67.6526 15.9308C68.7198 15.9308 69.7911 15.7806 70.8666 15.4801C71.9421 15.1797 72.9058 14.7575 73.7579 14.2135V16.9417C72.8231 17.5912 71.7353 18.0987 70.4943 18.4641C69.2617 18.8214 67.9711 19 66.6227 19ZM70.1096 10.2795C69.8697 9.36197 69.4147 8.65556 68.7446 8.16026C68.0828 7.65684 67.2555 7.40513 66.2628 7.40513C65.2122 7.40513 64.3311 7.66496 63.6197 8.18462C62.9165 8.69615 62.4532 9.39444 62.2298 10.2795H70.1096Z" fill="#EB2F96"/>
<path d="M90.5824 0.365384V4.01923H83.1866V18.6346H78.9675V4.01923H71.5716V0.365384H90.5824Z" fill="#4A99E9"/>
<path d="M92.9315 4.78654L96.6666 14.6032L100.489 4.78654H104.522L108.282 14.6276L112.029 4.78654H116.174L110.689 18.6346H106.457L102.487 8.55L98.4411 18.6346H94.2096L88.7372 4.78654H92.9315Z" fill="#4A99E9"/>
<path d="M125.3 19C123.628 19 122.131 18.6955 120.807 18.0865C119.484 17.4694 118.45 16.6088 117.705 15.5045C116.961 14.3921 116.588 13.1132 116.588 11.6679C116.588 10.247 116.944 8.98846 117.656 7.89231C118.367 6.78804 119.356 5.93141 120.621 5.32244C121.887 4.71346 123.318 4.40897 124.915 4.40897C126.52 4.40897 127.918 4.76218 129.109 5.46859C130.3 6.16688 131.215 7.1656 131.852 8.46474C132.497 9.75577 132.82 11.262 132.82 12.9833H121.031C121.345 13.9252 121.957 14.6519 122.867 15.1635C123.777 15.675 124.931 15.9308 126.33 15.9308C127.397 15.9308 128.468 15.7806 129.544 15.4801C130.619 15.1797 131.583 14.7575 132.435 14.2135V16.9417C131.5 17.5912 130.412 18.0987 129.171 18.4641C127.939 18.8214 126.648 19 125.3 19ZM128.787 10.2795C128.547 9.36197 128.092 8.65556 127.422 8.16026C126.76 7.65684 125.932 7.40513 124.94 7.40513C123.889 7.40513 123.008 7.66496 122.297 8.18462C121.593 8.69615 121.13 9.39444 120.907 10.2795H128.787Z" fill="#4A99E9"/>
<path d="M143.21 19C141.539 19 140.042 18.6955 138.718 18.0865C137.395 17.4694 136.361 16.6088 135.616 15.5045C134.872 14.3921 134.499 13.1132 134.499 11.6679C134.499 10.247 134.855 8.98846 135.566 7.89231C136.278 6.78804 137.266 5.93141 138.532 5.32244C139.798 4.71346 141.229 4.40897 142.826 4.40897C144.431 4.40897 145.829 4.76218 147.02 5.46859C148.211 6.16688 149.126 7.1656 149.763 8.46474C150.408 9.75577 150.73 11.262 150.73 12.9833H138.942C139.256 13.9252 139.868 14.6519 140.778 15.1635C141.688 15.675 142.842 15.9308 144.24 15.9308C145.308 15.9308 146.379 15.7806 147.454 15.4801C148.53 15.1797 149.494 14.7575 150.346 14.2135V16.9417C149.411 17.5912 148.323 18.0987 147.082 18.4641C145.849 18.8214 144.559 19 143.21 19ZM146.697 10.2795C146.458 9.36197 146.003 8.65556 145.332 8.16026C144.671 7.65684 143.843 7.40513 142.851 7.40513C141.8 7.40513 140.919 7.66496 140.207 8.18462C139.504 8.69615 139.041 9.39444 138.818 10.2795H146.697Z" fill="#4A99E9"/>
<path d="M151.424 6.04103L154.365 5.09102L156.127 1.10833H158.51V4.78654H164.752V7.84359H158.51V12.8737C158.51 13.6045 158.609 14.181 158.808 14.6032C159.006 15.0254 159.325 15.3299 159.763 15.5167C160.202 15.7034 160.802 15.7968 161.563 15.7968C162.258 15.7968 162.878 15.7318 163.424 15.6019C163.978 15.472 164.504 15.2771 165 15.0173V18.1962C164.487 18.4154 163.834 18.6021 163.039 18.7564C162.245 18.9188 161.447 19 160.644 19C158.51 19 156.93 18.5128 155.904 17.5385C154.878 16.5641 154.365 15.2041 154.365 13.4583V7.84359H151.424V6.04103Z" fill="#4A99E9"/>
</svg>